<svg width="30" height="30" viewBox="0 0 30 30" xmlns="http://www.w3.org/2000/svg">
  <path d="M26.48 24.64C28.68 22.04 30 18.67 30 15c0-8.3-6.72-15-15-15C6.72 0 0 6.7 0 15c0 8.28 6.72 15 15 15 3.67 0 7.03-1.32 9.64-3.52l2.68 2.7c.5.5 1.34.5 1.85 0 .5-.52.5-1.34 0-1.85l-2.7-2.7.01.01zM15 27.4C8.17 27.4 2.6 21.82 2.6 15S8.18 2.6 15 2.6 27.4 8.18 27.4 15c0 2.95-1.05 5.65-2.77 7.78l-2.84-2.83c-.52-.5-1.34-.5-1.85 0-.5.5-.5 1.33 0 1.84l2.83 2.83c-2.13 1.72-4.83 2.76-7.78 2.76l.01.02z" fill-rule="evenodd"/>
</svg>
