<svg width="30" height="30" viewBox="0 0 30 30" xmlns="http://www.w3.org/2000/svg">
  <g fill-rule="evenodd">
    <path d="M19.43 5.42c.07-1.05.55-1.95 1.25-2.58.64-.63 1.54-1.4 3.16-1.6 1.6-.14 2.57 0 3.7.55 1.13.62 2.03 1.73 2.23 2.93.2 1.18.14 3.5-1.25 4.9-1.13 1.1-1.75 1.32-3.16 1.38-1.04.1-1.95-.2-2.44-.33-.42-.14-1.68-.7-2.1-1.13-.42-.36-1.55-1.4-1.4-4.12" fill="#009F51"/>
    <path d="M4.54 6.53c.5-.7 1.1-.98 1.53-1.1.42-.15 1.26-.3 1.95-.22.7.14 1.26.7 1.68 1.27.42.55.5 1.95-.13 2.73-.63.76-1.47.84-2.16.97-.7.14-1.67-.07-2.1-.34-.4-.3-1.04-.63-1.12-1.9-.06-.5.15-1.12.36-1.4" fill="#FCCF00"/>
    <path d="M8.66 2.7c.57-.9 1.54-1.48 2.17-1.7.56-.2 1.74-.4 2.73-.07 1.26.5 2.1 1.74 2.24 2.73.13.92-.08 2.37-1.2 3.36-1.1.98-2.57 1.2-3.98.84-1.4-.34-2.44-1.8-2.44-3.42.07-.57.27-1.4.48-1.75" fill="#E5002D"/>
    <g>
      <path d="M.34 13.02c.35-.84.98-1.05 1.4-1.18.42-.14 1.47-.08 2.02.84.56.84.14 2.1-.28 2.52-.5.5-1.6.84-2.45.34-.7-.48-1.17-1.32-.7-2.52M5.55 21.72c-.1.17-.27.27-.5.33-.26.08-.76.1-1.45.1h-.58V20.2h.42c1.05 0 1.5.06 1.68.1.22.06.37.15.46.3.1.12.13.3.13.5.03.25-.03.48-.15.64zM3.03 24.3h.83c1.27 0 1.73.06 1.92.12.22.08.4.2.5.4.13.17.18.4.18.7 0 .28-.05.5-.17.7-.13.17-.3.3-.52.4-.26.1-.53.17-.85.2h-1.9V24.3zm4.53-1.48c.74-.5 1.1-1.25 1.1-2.18 0-.87-.32-1.54-.98-2.02-.63-.47-1.75-.7-3.45-.7H.15v11.15h4.63c1.47 0 2.63-.3 3.42-.94.82-.65 1.24-1.52 1.24-2.6 0-1.33-.65-2.26-1.88-2.7zM19.86 17.93h-9.82v2.32h3.46v8.82h2.9v-8.82h3.46M26.2 19.95c.9 0 1.88.45 2.93 1.34l.08.06h.65v-2.62l-.16-.08c-1.23-.6-2.5-.9-3.76-.9-1.68 0-3.03.5-4.03 1.56-.98 1.04-1.47 2.46-1.47 4.22 0 1.8.5 3.22 1.47 4.23.97 1.02 2.34 1.53 4.04 1.53.5 0 1.03-.06 1.57-.17.56-.1 1.27-.36 2.2-.78l.15-.07v-2.6h-.6l-.1.06c-.64.57-1.18.93-1.6 1.08-.44.17-.88.24-1.33.24-.86 0-1.5-.28-2-.88-.52-.6-.78-1.5-.78-2.64 0-1.16.26-2.06.75-2.67.5-.62 1.14-.92 2-.92"/>
    </g>
  </g>
</svg>
