<svg width="104" height="24" viewBox="0 0 104 24" xmlns="http://www.w3.org/2000/svg">
  <path d="M1 17.5c0-.3.2-.5.5-.5h10c.3 0 .5.2.5.5s-.2.5-.5.5h-10c-.3 0-.5-.2-.5-.5zm0-11c0-.3.2-.5.5-.5h10c.3 0 .5.2.5.5s-.2.5-.5.5h-10c-.3 0-.5-.2-.5-.5zM1 12c0-.3.2-.5.5-.5h10c.3 0 .5.2.5.5s-.2.5-.5.5h-10c-.3 0-.5-.2-.5-.5zm86 5.5c0-.3.2-.5.5-.5h10c.3 0 .5.2.5.5s-.2.5-.5.5h-10c-.3 0-.5-.2-.5-.5zm0-11c0-.3.2-.5.5-.5h10c.3 0 .5.2.5.5s-.2.5-.5.5h-10c-.3 0-.5-.2-.5-.5zm0 5.5c0-.3.2-.5.5-.5h10c.3 0 .5.2.5.5s-.2.5-.5.5h-10c-.3 0-.5-.2-.5-.5zm-6.2 1H85c-.5 2.3-2.5 4-5 4-2.7 0-5-2.2-5-5s2.3-5 5-5c2.5 0 4.5 1.7 5 4h1c-.5-2.8-3-5-6-5-3.3 0-6 2.7-6 6s2.7 6 6 6c3 0 5.5-2.2 6-5v-1h-5.2c-.3 0-.5.2-.5.5s.2.5.5.5zM31 17c-2.7 0-5-2.2-5-5s2.3-5 5-5c2.5 0 4.5 1.7 5 4h1c-.5-2.8-3-5-6-5-3.3 0-6 2.7-6 6s2.7 6 6 6c3 0 5.5-2.2 6-5h-1c-.5 2.3-2.5 4-5 4zM61 6h-.5-.2l-.2.2-9.8 11c-.2 0-.3.5 0 .7 0 0 .5 0 .7-.2l9-10v9.7c0 .3.2.5.5.5s.5-.2.5-.5v-11V6zm-13 .5v5h-9v-5c0-.3-.2-.5-.5-.5s-.5.2-.5.5v11c0 .3.2.5.5.5s.5-.2.5-.5v-5h9v5c0 .3.2.5.5.5s.5-.2.5-.5v-11c0-.3-.2-.5-.5-.5s-.5.2-.5.5zM72.5 6c-.3 0-.5.2-.5.5v9.7l-9-10-.5-.2h-.2l-.2.2v11.3c0 .3.2.5.5.5s.5-.2.5-.5V7.8l9 10h.2c0 .2.2.2.3.2h.4V6.4c0-.3-.2-.5-.5-.5zM23.8 17l-4.6-5 4.6-5c.2-.3.3-.7 0-1 0 0-.5 0-.7.2l-4.5 5-4.6-5c-.3-.2-.6-.3-1 0 0 0 0 .5.2.7l4.6 5-4.6 5c-.2.3-.3.7 0 1 0 0 .5 0 .7-.2l4.5-5 4.6 5c.3.2.6.3 1 0 0 0 0-.5-.2-.7z" />
</svg>