<svg width="60" height="24" viewBox="0 0 60 24" xmlns="http://www.w3.org/2000/svg">
  <path d="M46.5 6c.3 0 .5.2.5.5v11c0 .3-.2.5-.5.5s-.5-.2-.5-.5v-11c0-.3.2-.5.5-.5zm-30 10c1-1.2 1.5-2.5 1.5-4 0-3.3-2.7-6-6-6s-6 2.7-6 6 2.7 6 6 6c1.5 0 2.8-.5 4-1.4l1 1c0 .3.5.3.7 0 .2 0 .2-.5 0-.7l-1-1zM12 17c-2.8 0-5-2.2-5-5s2.2-5 5-5 5 2.2 5 5c0 1.2-.4 2.3-1 3l-1.3-1c-.2-.2-.5-.2-.7 0-.2.2-.2.5 0 .7l1 1.2c-.7.6-1.8 1-3 1zm31-5c0 2.8-2.2 5-5 5s-5-2.2-5-5 2.2-5 5-5 5 2.2 5 5zm-5-6c-3.3 0-6 2.7-6 6s2.7 6 6 6 6-2.7 6-6-2.7-6-6-6zm21.5 0c-.3 0-.5.2-.5.5v9.7l-9-10-.5-.2h-.2l-.2.2v11.3c0 .3.2.5.5.5s.5-.2.5-.5V7.8l9 10h.2c0 .2.2.2.3.2h.4V6.4c0-.3-.2-.5-.5-.5zM30 6.5V12c0 2.8-2.2 5-5 5s-5-2.2-5-5V6.5c0-.3-.2-.5-.5-.5s-.5.2-.5.5V12c0 3.3 2.7 6 6 6s6-2.7 6-6V6.5c0-.3-.2-.5-.5-.5s-.5.2-.5.5z" />
</svg>