<svg width="103" height="24" viewBox="0 0 103 24" xmlns="http://www.w3.org/2000/svg">
  <g fill-rule="evenodd">
    <path d="M16.9 8.55c-1.46.46-2.52 1.83-2.52 3.45s1.06 3 2.52 3.45c.7-.97 1.1-2.16 1.1-3.45 0-1.3-.4-2.48-1.1-3.45M10.67 12c0-2.36 1.12-4.46 2.86-5.8-.5-.13-1-.2-1.53-.2-3.3 0-6 2.7-6 6s2.7 6 6 6c.53 0 1.04-.07 1.53-.2-1.74-1.34-2.86-3.44-2.86-5.8" />
    <path d="M18 16.96c-2.73 0-4.96-2.23-4.96-4.96S15.27 7.04 18 7.04s4.96 2.23 4.96 4.96c0 1.18-.42 2.26-1.1 3.1L20.7 14c-.2-.2-.54-.2-.74 0-.2.2-.2.53 0 .74l1.13 1.13c-.84.7-1.92 1.1-3.1 1.1zm4.6-1.1c.87-1.05 1.4-2.4 1.4-3.86 0-3.3-2.7-6-6-6s-6 2.7-6 6 2.7 6 6 6c1.47 0 2.8-.53 3.86-1.4l1.07 1.07c.2.2.53.2.74 0 .2-.2.2-.54 0-.74l-1.08-1.07zM77.67 6c-3.32 0-6 2.7-6 6s2.68 6 6 6c3.3 0 6-2.7 6-6s-2.7-6-6-6m0 1c2.75 0 5 2.24 5 5s-2.25 5-5 5c-2.76 0-5-2.24-5-5s2.24-5 5-5M70.47 6H65c-.13 0-.24.05-.33.14h-.02v.03c-.1.1-.15.2-.15.33V17.47c0 .3.22.53.5.53s.5-.24.5-.53V7h4.97c.3 0 .53-.22.53-.5s-.24-.5-.53-.5M58.5 11.67H52V7h6.5c.67 0 2.17.33 2.17 2.33s-1.5 2.34-2.17 2.34m0-5.67h-7c-.13 0-.24.05-.33.14h-.02v.03c-.1.1-.15.2-.15.33V17.47c0 .3.22.53.5.53s.5-.24.5-.53v-4.8h6.5c.67 0 3.17-.34 3.17-3.34S59.17 6 58.5 6M49.17 6.15c-.2-.2-.53-.2-.74 0l-1.66 1.67-2.6 2.6-1.33-1.3V9.1L39.9 6.15c-.2-.2-.54-.2-.75 0-.2.2-.2.54 0 .74l1.66 1.65h.02l2.85 2.85v6.07c0 .3.22.53.5.53.27 0 .5-.24.5-.53V11.4l1.55-1.56 2.95-2.95c.2-.2.2-.54 0-.75M33.9 14.16l-1.5-1.5h1.43c.67 0 3.17-.33 3.17-3.33S34.5 6 33.83 6h-6.96-.02-.02c-.12 0-.24.05-.33.14h-.02v.03c-.1.1-.15.2-.15.33V17.47c0 .3.23.53.5.53.28 0 .5-.24.5-.53V7h6.5C34.5 7 36 7.33 36 9.33s-1.5 2.34-2.17 2.34H31l.02.03c-.07.03-.14.06-.2.12-.2.2-.2.54 0 .74l2.95 2.95 2.34 2.35c.2.2.54.2.74 0 .2-.2.2-.54 0-.74l-2.95-2.94zM91.67 11.5h-2.84c-.66 0-2.16-.33-2.16-2.25S88.17 7 88.83 7h4.47c.3 0 .53-.22.53-.5S93.6 6 93.3 6h-4.47c-.66 0-3.16.33-3.16 3.25s2.5 3.25 3.16 3.25h2.84c.66 0 2.16.33 2.16 2.25S92.33 17 91.67 17h-5.14c-.3 0-.53.22-.53.5s.24.5.53.5h5.14c.66 0 3.16-.33 3.16-3.25s-2.5-3.25-3.16-3.25" />
  </g>
</svg>