<svg width="78" height="24" viewBox="0 0 78 24" xmlns="http://www.w3.org/2000/svg">
  <g fill-rule="evenodd">
    <path d="M61 17.5c0-.28.23-.5.5-.5h10c.28 0 .5.23.5.5 0 .28-.23.5-.5.5h-10c-.28 0-.5-.23-.5-.5zm0-11c0-.28.23-.5.5-.5h10c.28 0 .5.23.5.5 0 .28-.23.5-.5.5h-10c-.28 0-.5-.23-.5-.5zm0 5.5c0-.28.23-.5.5-.5h10c.28 0 .5.23.5.5 0 .28-.23.5-.5.5h-10c-.28 0-.5-.23-.5-.5zM46.5 6c.28 0 .5.24.5.53v10.94c0 .3-.22.53-.5.53s-.5-.24-.5-.53V6.53c0-.3.22-.53.5-.53M16.6 15.86c.87-1.05 1.4-2.4 1.4-3.86 0-3.3-2.7-6-6-6s-6 2.7-6 6 2.7 6 6 6c1.47 0 2.8-.53 3.86-1.4l1.07 1.07c.2.2.53.2.74 0 .2-.2.2-.54 0-.74l-1.08-1.07zM12 17c-2.76 0-5-2.24-5-5s2.24-5 5-5 5 2.24 5 5c0 1.2-.42 2.28-1.12 3.14L14.74 14c-.2-.2-.54-.2-.74 0-.2.2-.2.54 0 .74l1.14 1.15c-.86.68-1.95 1.1-3.14 1.1zM43 12c0 2.76-2.24 5-5 5s-5-2.24-5-5 2.24-5 5-5 5 2.24 5 5zm-5-6c-3.3 0-6 2.7-6 6s2.7 6 6 6 6-2.7 6-6-2.7-6-6-6M59.5 6c-.28 0-.5.24-.5.53v9.64l-9.1-10c-.12-.1-.25-.17-.4-.17h-.04-.05l-.03.02c-.02 0-.04 0-.05.02h-.04l-.05.05-.07.04-.06.07c-.06.1-.1.22-.1.33v10.94c0 .3.22.53.5.53s.5-.24.5-.53V7.8l9.13 10.04.1.08c.1.05.18.08.27.08.14 0 .26-.04.36-.14.1-.1.15-.24.14-.37V6.52c0-.3-.22-.53-.5-.53zM30 6.5V12c0 2.76-2.24 5-5 5s-5-2.24-5-5V6.5c0-.28-.22-.5-.5-.5s-.5.22-.5.5V12c0 3.3 2.7 6 6 6s6-2.7 6-6V6.5c0-.28-.22-.5-.5-.5s-.5.22-.5.5z"/>
  </g>
</svg>
