<svg width="138" height="24" viewBox="0 0 138 24" xmlns="http://www.w3.org/2000/svg">
  <g fill-rule="evenodd">
    <path d="M51.8 1.84c.26-.25.63-.56 1.3-.65.64-.07 1.04 0 1.5.22.45.25.82.7.9 1.2.1.48.06 1.42-.5 1.98-.46.46-.72.54-1.3.57-.4.03-.78-.08-.98-.14-.17-.06-.68-.28-.86-.45-.17-.15-.62-.57-.56-1.68.02-.43.22-.8.5-1.06z" fill="#009F51"/>
    <path d="M45.24 3.35c.2-.28.45-.4.62-.45.17-.06.5-.12.8-.1.28.07.5.3.68.52.17.23.2.8-.06 1.1-.25.33-.6.35-.88.4-.28.07-.68-.02-.85-.13-.17-.12-.43-.27-.46-.78-.04-.2.05-.45.14-.57" fill="#FCCF00"/>
    <path d="M46.9 1.8c.24-.38.64-.6.9-.7.22-.08.7-.17 1.1-.02.52.2.86.7.92 1.1.05.38-.03.97-.5 1.37-.44.4-1.04.48-1.6.34-.58-.15-1-.75-1-1.4.02-.23.1-.57.2-.7" fill="#E5002D"/>
    <g>
      <path d="M43.53 6c.14-.34.4-.43.57-.5.17-.04.6 0 .82.36.23.34.06.85-.1 1.02-.2.2-.67.34-1 .14-.3-.2-.5-.54-.3-1.02M48.56 9.16c-.25 1.76-.68 3.64-1.13 4.75-.4.98-.66 1.4-.9 1.4-.3 0-.95-.74-.95-2.1.03-1.65.96-3.62 2.98-4.04m1.08-2.14c-3.58 0-6.17 2.6-6.17 6.18 0 2.7 1.62 4.38 3.1 4.38 1 0 1.7-.5 2.3-1.57.83-1.5 1.46-3.7 1.86-6.76 1.42.4 2.27 1.5 2.27 2.96 0 2.76-2 3.53-3.18 3.73h-.1c-.16.03-.27.17-.3.34v1.45c.03.2.17.34.37.34.02 0 .07 0 .1-.03 3.33-.25 5.35-2.44 5.35-5.77.03-3.16-2.2-5.24-5.6-5.24M29.76 11.26h-1.62c-.18.03-.32.17-.35.37v.06c-.06 2.58-.7 4.17-1.63 4.17-.3 0-.45-.08-.45-.48v-2.12c0-1.42-.63-2.16-1.85-2.16-.6 0-1.17.26-1.57.54.37-1.1 1.06-2.96 1.62-4.3l.03-.05c.03-.05.03-.1.03-.16 0-.23-.17-.46-.43-.46h-1.62c-.14 0-.28.14-.37.3V7c-1.16 3.08-2.27 7.03-3.2 10.47l-.04.08v.08c0 .2.17.43.37.43h1.6c.18 0 .32-.15.35-.32l.03-.17c.2-.76.46-1.8.74-2.5.34-.85 1.22-1.82 1.82-1.82.23 0 .46.1.46.63v2c0 1.45.82 2.28 2.44 2.28 2.45 0 3.85-2.3 4-6.5 0-.02-.04-.05-.04-.1.03-.15-.14-.32-.34-.32M8.53 15.56c-.25 0-.5-.26-.5-.83 0-.96.67-2.1 1.9-2.42-.63 2.7-1.1 3.26-1.4 3.26m9.36-3.13l-.06-.06c-.3-.17-.57-.34-.9-.5.07-.92 0-1.86 0-2.88l-.04-.27v-.06c0-.2-.1-.25-.3-.25H15.3c-.2 0-.37.1-.4.3v.46c0 .63 0 1.23-.03 1.77-.8-.3-1.57-.48-2.28-.6.17-.97.34-1.96.5-3.07v-.11c0-.2-.13-.18-.36-.46H7.6c-.2 0-.38.2-.4.44v1.22c0 .2.17.34.36.34h3.05c-.08.57-.16 1.03-.25 1.5-2.6.24-4.35 2.06-4.35 4.53 0 2.08 1.28 3.02 2.45 3.02 1.82 0 2.67-1.65 3.4-4.18.15-.5.24-.86.32-1.23.83.15 1.65.4 2.48.77-.37 1.8-1.17 2.7-2.73 3.08h-.06c-.03 0-.06 0-.1.03-.15.07-.27.2-.27.38v1.25c0 .2.16.37.36.4l.17-.03c2.5-.34 3.96-1.62 4.58-4.06.27.14.52.3.8.5.04.04.07.04.1.06.05.03.08.03.14.03.2 0 .37-.14.37-.34v-1.7c.03-.1 0-.2-.1-.27M37.04 10.4c.23 0 .63-.3.63-.53v-1.2c0-.2-.37-.25-.6-.25H35.6c.05-.57.13-.77.22-1.2v-.08c0-.2-.17-.43-.37-.43H33.9c-.16 0-.3.12-.36.3v.1l-.23 1.32h-1.7c-.2 0-.16.03-.16.22V9.9c0 .22 0 .5.22.5h1.23c-.58 2-1.3 4.13-2.15 6.07 0 .03-.03 0-.03.03l-.02.08c0 .23.17.37.4.37h1.53c.14 0 .26-.06.34-.17l.06-.06c.9-2.3 1.6-4.32 2.1-6.3h1.9z"/>
      <path d="M38.8 15.02c0 1-.42 1.42-1.33 1.42-.5 0-1.4-.1-1.4-.85 0-.53.54-.84 1.43-.84.42 0 1.05.1 1.33.23V15h-.02zm3.82-.43l.03-.04c-.4-.28-1-.62-1.57-.94v-3.07l1.17.14c.23.02.4-.15.4-.38l.1-1.2c.04-.22-.13-.42-.36-.45l-3.88-.4c-.23-.02-.43.15-.45.37l-.15 1.2c-.03.23.15.43.37.45l.48.05v2.68c-.3-.1-.94-.12-1.4-.12-2.05 0-3.35 1.1-3.35 2.77 0 1.7 1.33 2.76 3.5 2.76 1.9 0 3.07-.82 3.32-2.36.37.26.74.5 1.2.85l.06.03c.06.03.18.06.23.06.23 0 .43-.16.43-.4v-1.7c.03-.1-.06-.22-.14-.3zM67.06 5.1l-.1-.2-1.4.53.14.26c.3.6.6 1.25.88 1.95l.1.24 1.42-.54-.1-.26c-.3-.7-.62-1.37-.94-2M59.73 15.53c-.13-.14-.2-.4-.2-.74v-2.4c1.34-.2 2.77-.52 4.24-.93 1.58-.43 2.66-.8 3.3-1.12l.25-.13-1.2-2.04-.23.1c-1.35.66-3.5 1.3-6.37 1.88V6.52h-2.5v8.3c0 1.07.27 1.88.82 2.42.55.53 1.42.8 2.6.8h6.9v-2.3H60.7c-.67 0-.9-.12-.97-.2"/>
      <path d="M64.6 7.9l.1.24 1.43-.55-.1-.26c-.25-.63-.56-1.3-.93-2l-.1-.2-1.4.54.12.26c.24.44.53 1.1.88 1.96M70.74 14.1l2.15-.68-.1-.26c-.55-1.42-.92-2.36-1.16-2.86-.24-.5-.48-1-.73-1.46l-.1-.2-1.97.75.14.25c.76 1.46 1.33 2.87 1.7 4.2l.07.25zM73.72 13.24l.07.28 2.12-.74-.1-.25c-.52-1.4-.86-2.27-1.03-2.64-.18-.4-.47-.95-.88-1.7l-.1-.2-1.95.77.13.26c.78 1.5 1.36 2.92 1.72 4.2"/>
      <path d="M77.54 9c-.2 2.33-.82 4.1-1.85 5.3-1.04 1.18-2.63 1.93-4.74 2.23l-.3.05.6 1.85.2-.03c2.56-.33 4.54-1.27 5.88-2.78 1.33-1.5 2.13-3.66 2.38-6.4l.02-.27-2.18-.22-.02.27zM85.15 9.75V6.23h-2.57V18.4h2.56V12.2c1.8.65 3.58 1.57 5.28 2.72l.2.13 1.56-1.95-.26-.16c-2.36-1.43-4.63-2.5-6.77-3.2M93.45 9.74h8.14v5.85h-8.26v2.25h10.82V7.5h-10.7M115.58 6.26c-.84 1.33-2.1 2.52-3.73 3.55-1.64 1.04-3.6 1.83-5.84 2.36l-.27.07.77 2.2.23-.06c1.82-.44 3.5-1.04 5.03-1.77v5.68h2.5v-7.2c.63-.44 1.22-.93 1.76-1.46.58-.56 1.2-1.35 1.88-2.36l.18-.27-2.38-.92-.12.18zM130.02 9.93l-.14.24c-.6 1.02-1.17 1.8-1.67 2.3-.5.52-1.1 1.03-1.83 1.53-.72.5-1.56.9-2.5 1.2-.97.3-2.18.53-3.63.66l-.3.03.56 2.3h.23c2.72-.27 5-.95 6.8-2.02 1.78-1.08 3.25-2.67 4.36-4.72l.1-.2-1.98-1.33zM123.42 10.56c.5.28 1.05.62 1.68 1.03l.2.12 1.5-2.04-.24-.14c-2.12-1.22-3.87-2.12-5.23-2.66l-.2-.08-1.3 1.9.27.14c1.72.87 2.84 1.45 3.32 1.72"/>
    </g>
  </g>
</svg>
