<?xml version="1.0" encoding="utf-8"?>
<!-- Generator: Adobe Illustrator 15.0.0, SVG Export Plug-In . SVG Version: 6.00 Build 0)  -->
<!DOCTYPE svg PUBLIC "-//W3C//DTD SVG 1.1//EN" "http://www.w3.org/Graphics/SVG/1.1/DTD/svg11.dtd">
<svg version="1.1" id="Layer_1" xmlns="http://www.w3.org/2000/svg" xmlns:xlink="http://www.w3.org/1999/xlink" x="0px" y="0px"
   width="176px" height="176px" viewBox="0 0 176 176" enable-background="new 0 0 176 176" xml:space="preserve">
<g>
  <g>
    <path d="M99.429,67.277c-8.785,2.792-15.168,11.024-15.168,20.722c0,9.698,6.384,17.931,15.169,20.722
      C103.563,102.86,106,95.717,106,88C106,80.282,103.563,73.138,99.429,67.277z"/>
    <path d="M62,87.999c0-14.159,6.729-26.769,17.15-34.822C76.229,52.411,73.163,52,70,52c-19.882,0-36,16.118-36,36s16.118,36,36,36
      c3.163,0,6.229-0.411,9.151-1.177C68.729,114.77,62,102.159,62,87.999z"/>
  </g>
  <path d="M133.562,111.138c5.26-6.258,8.438-14.325,8.438-23.139C142,68.116,125.883,52,106,52S70,68.116,70,87.999
    S86.117,124,106,124c8.814,0,16.879-3.178,23.136-8.436l6.444,6.444c1.223,1.223,3.204,1.223,4.427,0s1.223-3.204,0-4.427
    L133.562,111.138z M106,117.738c-16.398,0-29.739-13.341-29.739-29.739c0-16.397,13.341-29.739,29.739-29.739
    s29.739,13.342,29.739,29.739c0,7.074-2.491,13.57-6.632,18.682l-6.807-6.809c-1.223-1.223-3.204-1.223-4.427,0
    c-1.224,1.224-1.224,3.205,0,4.428l6.806,6.808C119.57,115.246,113.074,117.738,106,117.738z"/>
</g>
</svg>
